<svg width="48" height="48" viewBox="0 0 48 48" fill="none" xmlns="http://www.w3.org/2000/svg">
<path d="M23.9813 36.1969C20.7281 36.1969 17.6625 34.9312 15.3656 32.625C10.6125 27.8719 10.6125 20.1375 15.3656 15.3937C17.0063 13.7531 19.0594 12.6281 21.3094 12.1219C23.4938 11.6344 25.7719 11.7562 27.9 12.4687C28.3875 12.6375 28.65 13.1625 28.4906 13.6594C28.3312 14.1562 27.7969 14.4094 27.3 14.25C23.55 12.9844 19.4906 13.9312 16.6969 16.725C12.675 20.7469 12.675 27.2906 16.6969 31.3125C18.6469 33.2625 21.2344 34.3312 23.9906 34.3312C26.7469 34.3312 29.3344 33.2625 31.2844 31.3125C34.1063 28.4906 35.0531 24.2344 33.6844 20.4844C33.5062 19.9969 33.7594 19.4625 34.2469 19.2844C34.7344 19.1062 35.2688 19.3594 35.4469 19.8469C37.0594 24.2812 35.9531 29.3062 32.6156 32.6437C30.2906 34.9312 27.2344 36.1969 23.9813 36.1969Z" fill="white"/>
<path d="M28.125 48H19.875C19.3594 48 18.9375 47.5781 18.9375 47.0625V43.0594C17.2406 42.6094 15.6187 41.9437 14.1 41.0625L11.2687 43.8938C11.0906 44.0719 10.8562 44.1656 10.6031 44.1656C10.35 44.1656 10.1156 44.0625 9.9375 43.8938L4.10625 38.0625C3.92812 37.8844 3.83438 37.65 3.83438 37.3969C3.83438 37.1437 3.9375 36.9094 4.10625 36.7312L6.9375 33.9C6.05625 32.3813 5.38125 30.7594 4.94063 29.0625H0.9375C0.421875 29.0625 0 28.6406 0 28.125V19.875C0 19.3594 0.421875 18.9375 0.9375 18.9375H4.95C5.4 17.25 6.075 15.6281 6.95625 14.1094L4.11563 11.2687C3.9375 11.0906 3.84375 10.8562 3.84375 10.6031C3.84375 10.35 3.94688 10.1156 4.11563 9.9375L9.94687 4.10625C10.125 3.92812 10.3594 3.83438 10.6125 3.83438C10.8656 3.83438 11.1 3.9375 11.2781 4.10625L14.1281 6.95625C15.6375 6.08437 17.25 5.40938 18.9375 4.96875V0.9375C18.9375 0.421875 19.3594 0 19.875 0H28.125C28.6406 0 29.0625 0.421875 29.0625 0.9375V4.97812C30.75 5.42812 32.3625 6.09375 33.8719 6.975L36.7312 4.11563C36.9094 3.9375 37.1437 3.84375 37.3969 3.84375C37.6406 3.84375 37.8844 3.94688 38.0625 4.11563L43.8938 9.94687C44.0719 10.125 44.1656 10.3594 44.1656 10.6125C44.1656 10.8656 44.0625 11.1 43.8938 11.2781L41.0344 14.1375C41.9156 15.6469 42.5812 17.2594 43.0312 18.9469H47.0625C47.5781 18.9469 48 19.3688 48 19.8844V28.1344C48 28.65 47.5781 29.0719 47.0625 29.0719H43.0312C42.5812 30.7594 41.9156 32.3719 41.0344 33.8906L43.8844 36.7406C44.0625 36.9188 44.1562 37.1531 44.1562 37.4062C44.1562 37.6594 44.0531 37.8937 43.8844 38.0719L38.0531 43.9031C37.6875 44.2687 37.0969 44.2687 36.7312 43.9031L33.8906 41.0625C32.3719 41.9437 30.7594 42.6187 29.0625 43.0687V47.0625C29.0625 47.5781 28.6406 48 28.125 48ZM20.8125 46.125H27.1875V42.3187C27.1875 41.8781 27.4875 41.5031 27.9187 41.4C29.9062 40.95 31.8 40.1719 33.525 39.075C33.9 38.8406 34.3781 38.8969 34.6875 39.2063L37.3875 41.9062L41.8969 37.3969L39.1969 34.6875C38.8875 34.3781 38.8313 33.8906 39.0656 33.525C40.1625 31.8 40.9406 29.9156 41.3812 27.9187C41.475 27.4875 41.8594 27.1875 42.3 27.1875H46.125V20.8125H42.2906C41.85 20.8125 41.475 20.5125 41.3719 20.0812C40.9219 18.0938 40.1437 16.2094 39.0469 14.4844C38.8125 14.1094 38.8687 13.6313 39.1781 13.3219L41.8875 10.6125L37.3781 6.10312L34.6781 8.8125C34.3687 9.12187 33.8812 9.17813 33.5156 8.94375C31.7906 7.84688 29.9062 7.06875 27.9187 6.61875C27.4875 6.525 27.1875 6.14062 27.1875 5.7V1.875H20.8125V5.7C20.8125 6.14062 20.5125 6.51562 20.0812 6.61875C18.0938 7.06875 16.2094 7.84688 14.475 8.93438C14.1 9.16875 13.6219 9.1125 13.3125 8.80313L10.6125 6.10312L6.10312 10.6125L8.80313 13.3125C9.1125 13.6219 9.16875 14.1094 8.93438 14.475C7.8375 16.2 7.05 18.0938 6.60938 20.0812C6.51562 20.5125 6.13125 20.8125 5.69063 20.8125H1.875V27.1875H5.68125C6.12187 27.1875 6.49688 27.4875 6.6 27.9187C7.05 29.9156 7.82812 31.8 8.925 33.5344C9.15937 33.9094 9.10313 34.3875 8.79375 34.6969L6.10312 37.3875L10.6125 41.8969L13.3031 39.2063C13.6125 38.8969 14.1 38.8406 14.4656 39.075C16.2 40.1719 18.0844 40.95 20.0812 41.4C20.5125 41.4938 20.8125 41.8781 20.8125 42.3187V46.125Z" fill="#D31145"/>
<path d="M23.9907 30.5719C20.372 30.5719 17.4282 27.6281 17.4282 24.0094C17.4282 20.3906 20.372 17.4469 23.9907 17.4469C27.6095 17.4469 30.5532 20.3906 30.5532 24.0094C30.5532 27.6281 27.6095 30.5719 23.9907 30.5719ZM23.9907 19.3219C21.4032 19.3219 19.3032 21.4219 19.3032 24.0094C19.3032 26.5969 21.4032 28.6969 23.9907 28.6969C26.5782 28.6969 28.6782 26.5969 28.6782 24.0094C28.6782 21.4312 26.5688 19.3219 23.9907 19.3219Z" fill="#D31145"/>
<path d="M31.9125 17.0156C31.6687 17.0156 31.4344 16.9219 31.2469 16.7437C30.8813 16.3781 30.8813 15.7875 31.2469 15.4219L31.2937 15.375C31.6594 15.0094 32.25 15.0094 32.6156 15.375C32.9812 15.7406 32.9812 16.3312 32.6156 16.6969L32.5687 16.7437C32.3906 16.9219 32.1469 17.0156 31.9125 17.0156Z" fill="#D31145"/>
</svg>
