<svg width="62" height="60" viewBox="0 0 62 60" fill="none" xmlns="http://www.w3.org/2000/svg">
<g filter="url(#filter0_d)">
<path d="M26.2325 36.9266H21.9302C21.3478 36.9266 20.8755 36.4543 20.8755 35.8719C20.8755 35.2895 21.3477 34.8172 21.9302 34.8172H26.2325C26.8149 34.8172 27.2872 35.2895 27.2872 35.8719C27.2872 36.4543 26.8149 36.9266 26.2325 36.9266Z" fill="white"/>
<path d="M40.0699 36.9266H35.7676C35.1852 36.9266 34.7129 36.4543 34.7129 35.8719C34.7129 35.2895 35.1851 34.8172 35.7676 34.8172H40.0699C40.6523 34.8172 41.1245 35.2895 41.1245 35.8719C41.1245 36.4543 40.6523 36.9266 40.0699 36.9266Z" fill="white"/>
<path d="M30.9808 36.9264C30.5408 36.9264 30.1354 36.642 29.9879 36.2269C29.8425 35.8176 29.9664 35.3488 30.2986 35.0678C30.6453 34.7745 31.151 34.7393 31.5369 34.9767C31.9062 35.204 32.0991 35.6525 32.0145 36.0774C31.9173 36.5647 31.4778 36.9264 30.9808 36.9264Z" fill="white"/>
<path d="M37.1215 41.0819H24.8784C24.296 41.0819 23.8237 40.6096 23.8237 40.0272C23.8237 39.4448 24.2959 38.9725 24.8784 38.9725H37.1215C37.7039 38.9725 38.1762 39.4448 38.1762 40.0272C38.1762 40.6096 37.704 41.0819 37.1215 41.0819Z" fill="white"/>
<path d="M35.4849 23.935C36.902 22.6883 37.7978 20.8621 37.7978 18.8306C37.7978 15.0822 34.7485 12.0328 31.0003 12.0328C27.2522 12.0328 24.2029 15.0822 24.2029 18.8306C24.2029 20.8621 25.0986 22.6883 26.5158 23.935C24.1212 24.8496 22.416 27.1708 22.416 29.8829V31.6912C22.416 32.2736 22.8882 32.7459 23.4707 32.7459H38.5301C39.1125 32.7459 39.5847 32.2736 39.5847 31.6912V29.8829C39.5846 27.1708 37.8794 24.8496 35.4849 23.935ZM31.0003 14.1422C33.5855 14.1422 35.6885 16.2453 35.6885 18.8306C35.6885 21.4158 33.5854 23.519 31.0003 23.519C28.4153 23.519 26.3121 21.4158 26.3121 18.8306C26.3121 16.2453 28.4152 14.1422 31.0003 14.1422ZM37.4754 30.6364H24.5253V29.8828C24.5253 27.5369 26.4338 25.6282 28.7797 25.6282H33.2209C35.5667 25.6282 37.4753 27.5369 37.4753 29.8828V30.6364H37.4754Z" fill="#D31145"/>
<path d="M16.7307 51.8731C15.9201 51.8731 15.1191 51.618 14.4339 51.1201C13.3111 50.3043 12.7123 48.9917 12.8324 47.6089L14.0278 33.8304L4.96322 23.3864C4.05345 22.3382 3.76636 20.9244 4.19531 19.6045C4.62404 18.2845 5.68727 17.3096 7.03916 16.9963L20.5107 13.8758L27.6409 2.02601C28.3565 0.836847 29.6123 0.126831 31 0.126831C32.3877 0.126831 33.6434 0.836741 34.3591 2.02601L41.4893 13.8758L54.9608 16.9963C56.3127 17.3096 57.3757 18.2845 57.8046 19.6045C58.2336 20.9245 57.9466 22.3383 57.0368 23.3864L47.9721 33.8304L49.1676 47.609C49.2876 48.9917 48.6889 50.3043 47.5661 51.1201C46.4432 51.9358 45.01 52.0995 43.7325 51.5581L31 46.1631L18.2675 51.5582C17.7697 51.7692 17.2481 51.8731 16.7307 51.8731ZM31 2.23631C30.3588 2.23631 29.7788 2.56432 29.4482 3.11371L22.0876 15.3463C21.9403 15.591 21.7001 15.7655 21.4219 15.83L7.51514 19.0514C6.89056 19.1961 6.39939 19.6466 6.20132 20.2564C6.00325 20.8662 6.13582 21.5196 6.55612 22.0038L15.9137 32.7853C16.1009 33.001 16.1926 33.2834 16.168 33.5678L14.9338 47.7913C14.8783 48.4304 15.155 49.0368 15.6737 49.4136C16.1922 49.7904 16.8542 49.8662 17.4445 49.6159L30.5884 44.0466C30.8515 43.9351 31.1483 43.9351 31.4113 44.0466L44.5552 49.6159C45.1454 49.866 45.8074 49.7904 46.3261 49.4136C46.8449 49.0368 47.1215 48.4304 47.0659 47.7914L45.8317 33.5678C45.8072 33.2834 45.8988 33.001 46.086 32.7853L55.4437 22.0038C55.864 21.5195 55.9966 20.8663 55.7984 20.2564C55.6002 19.6466 55.1091 19.1961 54.4846 19.0514L40.5778 15.8301C40.2996 15.7656 40.0594 15.5911 39.9122 15.3464L32.5515 3.11381C32.2211 2.56432 31.6411 2.23631 31 2.23631Z" fill="#D31145"/>
</g>
<defs>
<filter id="filter0_d" x="0" y="0.126831" width="62" height="59.7462" filterUnits="userSpaceOnUse" color-interpolation-filters="sRGB">
<feFlood flood-opacity="0" result="BackgroundImageFix"/>
<feColorMatrix in="SourceAlpha" type="matrix" values="0 0 0 0 0 0 0 0 0 0 0 0 0 0 0 0 0 0 127 0"/>
<feOffset dy="4"/>
<feGaussianBlur stdDeviation="2"/>
<feColorMatrix type="matrix" values="0 0 0 0 0 0 0 0 0 0 0 0 0 0 0 0 0 0 0.25 0"/>
<feBlend mode="normal" in2="BackgroundImageFix" result="effect1_dropShadow"/>
<feBlend mode="normal" in="SourceGraphic" in2="effect1_dropShadow" result="shape"/>
</filter>
</defs>
</svg>
