<svg width="53" height="53" viewBox="0 0 53 53" fill="none" xmlns="http://www.w3.org/2000/svg">
<path d="M15.6983 22.9943L15.6964 23.028C15.5658 25.3152 16.847 27.4579 18.9612 28.4851L18.9829 28.4957C19.7282 28.8522 20.3392 29.44 20.7246 30.171L20.7333 30.1869C21.7986 32.2153 24.0019 33.4449 26.3508 33.3215L26.3864 33.3196C27.2383 33.2719 28.0839 33.4916 28.8047 33.9484C30.7936 35.1924 33.3183 35.1924 35.3072 33.9484C36.028 33.4916 36.8736 33.2719 37.7255 33.3196L37.7611 33.3215C40.1061 33.4459 42.3123 32.2153 43.38 30.1835L43.3853 30.1724C43.7722 29.4396 44.3846 28.8508 45.1324 28.4938L45.1497 28.4851C47.264 27.4574 48.5456 25.3152 48.4145 23.0276L48.4126 22.9958C48.3692 22.1902 48.5928 21.3928 49.0496 20.7274C50.3644 18.8098 50.3644 16.2812 49.05 14.3631C48.5938 13.6982 48.3692 12.9013 48.4126 12.0957L48.4145 12.0619C48.5456 9.77427 47.264 7.63212 45.1478 6.60393L45.1285 6.59429C44.3846 6.23871 43.7751 5.65379 43.3892 4.9248L43.3781 4.90312C42.3123 2.87468 40.1061 1.64557 37.7611 1.76843L37.725 1.77036C36.8736 1.81806 36.028 1.59835 35.3077 1.14159H35.3067C33.3178 -0.102455 30.7931 -0.102455 28.8042 1.14159C28.0834 1.59787 27.2378 1.81758 26.3859 1.76988L26.3503 1.76795C24.0048 1.64364 21.7991 2.8742 20.7338 4.90216L20.7256 4.9171C20.3396 5.64945 19.7282 6.23775 18.9819 6.59478L18.9617 6.60441C16.8474 7.63164 15.5658 9.77427 15.6969 12.0619L15.6988 12.0937C15.7422 12.8993 15.5186 13.6967 15.0618 14.3616C13.747 16.2797 13.747 18.8088 15.0618 20.7264C15.5181 21.3913 15.7422 22.1887 15.6983 22.9943ZM16.686 15.4823C17.3909 14.4561 17.7364 13.2255 17.6689 11.9824L17.667 11.9487C17.5976 10.4329 18.4485 9.02505 19.8222 8.38086L19.839 8.37267C20.966 7.83304 21.8887 6.94457 22.4707 5.83929L22.4803 5.82098C23.1881 4.47286 24.6707 3.6557 26.2452 3.73954L26.2799 3.74098C27.5399 3.81181 28.7902 3.48707 29.856 2.81156C31.2017 1.96983 32.9092 1.96983 34.2549 2.81156C35.3207 3.4861 36.571 3.81133 37.8305 3.74147L37.8652 3.73954C39.4475 3.65667 40.9228 4.47286 41.6286 5.81713L41.6417 5.8417C42.2237 6.94554 43.1454 7.83256 44.2709 8.37171L44.2873 8.3799C45.6826 9.0583 46.5297 10.4589 46.4444 11.9492L46.4425 11.9844C46.375 13.2274 46.7209 14.4575 47.4258 15.4838C48.2777 16.7264 48.2772 18.3646 47.4249 19.6067C46.7205 20.6334 46.375 21.864 46.4425 23.1071L46.4444 23.1403C46.5297 24.6306 45.6826 26.0317 44.2868 26.7106L44.2724 26.7173C43.1444 27.2579 42.2208 28.1473 41.6383 29.2545L41.6311 29.269C40.9228 30.6171 39.4426 31.4348 37.8657 31.3504L37.8315 31.3485C36.5715 31.2782 35.3207 31.6034 34.2545 32.2784C32.9092 33.1197 31.2017 33.1197 29.8565 32.2784C28.887 31.6641 27.7625 31.3384 26.6148 31.3394C26.5035 31.3394 26.3917 31.3422 26.2799 31.3485L26.2452 31.35C24.6914 31.4487 23.2214 30.6354 22.4789 29.2666L22.4688 29.2478C21.8877 28.1444 20.9665 27.2579 19.8414 26.7187L19.8231 26.7096C18.4273 26.0312 17.5803 24.6301 17.666 23.1403L17.668 23.1051C17.7349 21.8621 17.389 20.6315 16.6846 19.6057C15.8332 18.3631 15.8337 16.7249 16.686 15.4833V15.4823Z" fill="#D31145"/>
<path d="M25.6891 27.746C26.1512 28.0346 26.7597 27.8934 27.0483 27.4313L38.7376 8.70513C38.9284 8.40592 38.9443 8.02721 38.7786 7.71355C38.6128 7.39941 38.291 7.19897 37.9364 7.18789C37.5818 7.17681 37.2483 7.35701 37.0633 7.66007L25.3745 26.3863C25.0859 26.8488 25.2266 27.4574 25.6891 27.746Z" fill="white"/>
<path d="M26.7364 17.5936C29.1393 17.5936 31.0945 15.3643 31.0945 12.6242C31.0945 9.88412 29.1393 7.65524 26.7364 7.65524C24.3336 7.65524 22.3789 9.88412 22.3789 12.6242C22.3789 15.3643 24.3336 17.5936 26.7364 17.5936ZM26.7364 9.62876C28.0513 9.62876 29.1209 10.9725 29.1209 12.6242C29.1209 14.2759 28.0513 15.6201 26.7364 15.6201C25.4221 15.6201 24.3524 14.2754 24.3524 12.6242C24.3524 10.973 25.4221 9.62876 26.7364 9.62876Z" fill="white"/>
<path d="M33.0176 22.4667C33.0176 25.2068 34.9723 27.4357 37.3751 27.4357C39.7779 27.4357 41.7331 25.2063 41.7331 22.4667C41.7331 19.7276 39.7784 17.4978 37.3756 17.4978C34.9723 17.4978 33.0176 19.7262 33.0176 22.4667ZM39.7596 22.4667C39.7596 24.1184 38.69 25.4622 37.3751 25.4622C36.0607 25.4622 34.9911 24.1184 34.9911 22.4667C34.9911 20.8151 36.0607 19.4713 37.3751 19.4713C38.69 19.4713 39.7596 20.8141 39.7596 22.4667Z" fill="white"/>
<path d="M52.8719 38.8523C51.5652 36.5333 48.6676 35.6502 46.2898 36.846L38.56 40.4982C37.4928 38.5136 35.4456 37.2503 33.1926 37.1867L26.0569 36.9901C24.9271 36.9578 23.8184 36.6711 22.8138 36.1527L22.0877 35.7764C18.3701 33.8385 13.9388 33.8434 10.225 35.7889L10.2703 34.144C10.2852 33.5991 9.85591 33.1452 9.31097 33.1303L1.4863 32.9149C0.941363 32.9 0.487975 33.3293 0.473039 33.8742L0.000378226 51.0456C-0.0145581 51.5905 0.414739 52.0444 0.959672 52.0593L8.78435 52.2747H8.81181C9.34615 52.2742 9.78315 51.8488 9.79809 51.3149L9.82025 50.4934L11.853 49.405C12.6509 48.9757 13.5842 48.8736 14.4558 49.1203L26.5942 52.5272C26.6154 52.5334 26.6366 52.5383 26.6582 52.5431C27.5356 52.7267 28.4299 52.8187 29.3265 52.8182C31.2249 52.8192 33.1011 52.4101 34.8265 51.618C34.8689 51.5987 34.9098 51.5766 34.9488 51.5515L52.5486 40.1667C52.9875 39.8834 53.1292 39.3067 52.8719 38.8523ZM2.00039 50.1133L2.41861 34.9154L8.27074 35.0763L7.85204 50.2747L2.00039 50.1133ZM33.937 49.8546C31.7934 50.822 29.3993 51.089 27.0953 50.6177L14.9892 47.2205C13.6271 46.835 12.1681 46.995 10.9217 47.6652L9.88289 48.2212L10.1614 38.1161C13.4527 35.9267 17.6743 35.7017 21.18 37.5283L21.9061 37.9046C23.1752 38.5598 24.5754 38.9217 26.003 38.9626L33.1387 39.1592C35.143 39.2166 36.8453 40.6437 37.2519 42.6076L26.6231 42.3151C26.0781 42.3002 25.6248 42.7295 25.6098 43.2744C25.5949 43.8193 26.0242 44.2732 26.5691 44.2881L38.2989 44.611H38.3268C38.8607 44.6105 39.2977 44.185 39.3126 43.6512C39.3247 43.2224 39.2924 42.7931 39.2172 42.371L47.1441 38.6249L47.1672 38.6138C48.2917 38.0443 49.6519 38.2346 50.5765 39.0908L33.937 49.8546Z" fill="#D31145"/>
</svg>
