<svg width="38" height="52" viewBox="0 0 38 52" fill="none" xmlns="http://www.w3.org/2000/svg">
<path d="M10.875 10.7656C11.4356 10.7656 11.8906 10.3106 11.8906 9.75C11.8906 9.19696 11.4411 8.73438 10.875 8.73438C10.3144 8.73438 9.85938 9.18942 9.85938 9.75C9.85938 10.3149 10.3204 10.7656 10.875 10.7656Z" fill="#D31145"/>
<path d="M19 0C8.70966 0 0.414062 8.99225 0.414062 18.8906C0.414062 28.6628 17.4726 50.6761 18.1986 51.6084C18.3914 51.8556 18.687 52 19 52C19.313 52 19.609 51.8556 19.8014 51.6084C20.5274 50.6761 37.5859 28.6628 37.5859 18.8906C37.5859 9.00415 29.3011 0 19 0ZM35.5547 18.8906C35.5547 26.4479 23.5552 43.2732 19 49.3102C14.411 43.2287 2.44531 26.4289 2.44531 18.8906C2.44531 9.90948 10.1811 2.03125 19 2.03125C27.8189 2.03125 35.5547 9.90948 35.5547 18.8906Z" fill="#D31145"/>
<path d="M19 5.6875C17.2667 5.6875 15.6655 6.00488 13.9619 6.68646C13.4414 6.89474 13.1879 7.48587 13.3962 8.00677C13.6049 8.52728 14.196 8.7804 14.7165 8.57211C16.1924 7.98218 17.5135 7.71875 19 7.71875C25.16 7.71875 30.1719 12.7306 30.1719 18.8906C30.1719 25.0506 25.16 30.0625 19 30.0625C12.84 30.0625 7.82812 25.0506 7.82812 18.8906C7.82812 16.9792 8.30737 15.1431 9.25317 13.4336C9.52454 12.9429 9.3468 12.3248 8.85605 12.0534C8.3653 11.782 7.74719 11.9598 7.47543 12.4505C6.36182 14.4643 5.79688 16.6313 5.79688 18.8906C5.79688 26.171 11.7196 32.0938 19 32.0938C26.2804 32.0938 32.2031 26.171 32.2031 18.8906C32.2031 11.6103 26.2804 5.6875 19 5.6875Z" fill="#D31145"/>
<path d="M13.2271 24.9324L18.9999 23.0079L24.7727 24.9324C25.16 25.0613 25.5904 24.9463 25.861 24.6341C26.13 24.3238 26.1859 23.8819 26.0022 23.5145L19.9085 11.327C19.9069 11.3238 19.9049 11.3214 19.9033 11.3183C19.5292 10.5899 18.4782 10.5756 18.0966 11.3183C18.0954 11.3214 18.093 11.3238 18.0918 11.327L11.9981 23.5145C11.814 23.8819 11.8699 24.3238 12.1389 24.6341C12.4083 24.9447 12.8376 25.0621 13.2271 24.9324ZM20.0156 21.2055V16.0834L23.0886 22.2299L20.0156 21.2055ZM17.9843 16.0834V21.2055L14.9113 22.2299L17.9843 16.0834Z" fill="white"/>
</svg>
